<?xml version="1.0" encoding="UTF-8" standalone="no"?>
<!-- Created with Inkscape (http://www.inkscape.org/) -->

<svg
   width="210mm"
   height="297mm"
   viewBox="0 0 210 297"
   version="1.1"
   id="svg5"
   inkscape:version="1.2.2 (732a01da63, 2022-12-09)"
   sodipodi:docname="Zeichnung.svg"
   xmlns:inkscape="http://www.inkscape.org/namespaces/inkscape"
   xmlns:sodipodi="http://sodipodi.sourceforge.net/DTD/sodipodi-0.dtd"
   xmlns="http://www.w3.org/2000/svg"
   xmlns:svg="http://www.w3.org/2000/svg">
  <sodipodi:namedview
     id="namedview7"
     pagecolor="#ffffff"
     bordercolor="#000000"
     borderopacity="0.25"
     inkscape:showpageshadow="2"
     inkscape:pageopacity="0.0"
     inkscape:pagecheckerboard="0"
     inkscape:deskcolor="#d1d1d1"
     inkscape:document-units="mm"
     showgrid="false"
     showguides="true"
     inkscape:zoom="0.91224632"
     inkscape:cx="464.78675"
     inkscape:cy="470.26773"
     inkscape:window-width="3440"
     inkscape:window-height="1377"
     inkscape:window-x="-8"
     inkscape:window-y="-8"
     inkscape:window-maximized="1"
     inkscape:current-layer="layer1">
    <sodipodi:guide
       position="159.73078,269.19556"
       orientation="0,-1"
       id="guide1025"
       inkscape:locked="false" />
  </sodipodi:namedview>
  <defs
     id="defs2" />
  <g
     inkscape:label="Ebene 1"
     inkscape:groupmode="layer"
     id="layer1">
    <path
       style="color:#000000;fill:#000000;-inkscape-stroke:none"
       d="m 132.46094,39.685547 c -1.48829,-0.09575 -3.44989,1.024706 -6.13281,3.898437 -1.7864,1.913439 -3.03393,5.564054 -4.13343,9.997676 -2.19147,-1.012003 -4.90796,-3.225754 -5.55893,-4.243229 -0.0229,-0.581667 -0.11997,-1.416407 -0.12277,-1.666589 -0.0269,-2.480928 0.0207,-3.506032 -0.16956,-4.473725 -0.0476,-0.241923 -0.0742,-0.416594 -0.14819,-0.565307 -0.037,-0.07436 -0.0784,-0.141487 -0.14843,-0.199218 -0.07,-0.05773 -0.18569,-0.0982 -0.28907,-0.07813 -0.20676,0.04016 -0.29104,0.188744 -0.38281,0.359375 -0.0918,0.170631 -0.17889,0.397709 -0.27344,0.697265 -0.72619,2.300758 -0.15372,4.39682 1.08203,6.177735 0.0227,4.9321 -0.16119,11.781954 -0.52148,19.253906 -0.0471,0.976334 -0.13201,1.884662 -0.18359,2.868776 -1.49335,-0.582285 -3.02754,-1.133672 -4.58008,-1.243776 -1.16991,-0.08297 -1.99908,-0.05506 -3.11987,0.315426 -0.614,-0.01274 -1.61941,-0.06811 -2.2063,-0.04785 -2.81264,0.09711 -5.25582,0.579802 -6.769536,1.701172 -1.54007,1.140892 -2.52492,3.689854 -3.216797,6.867187 -0.691876,3.177334 -1.067624,6.99374 -1.263671,10.675782 -0.167958,3.154473 0.08963,7.487835 0.104013,9.950317 C 94.140767,96.687923 93.68185,92.493153 93.050781,86.890625 92.578895,82.701297 91.727503,77.770032 91.27304,75.450519 90.818576,73.131006 90.411179,72.17228 89.915361,72.626493 c -0.495818,0.454212 -0.478481,1.311297 -0.649728,2.452485 -0.171247,1.141187 -0.345215,2.624267 -0.476808,4.199954 -0.263187,3.151374 -0.465917,6.83648 -0.602662,10.538691 -0.193446,5.237349 -0.279154,7.845147 -0.313235,10.317267 -0.20268,-2.853947 -0.528719,-6.889135 -1.240116,-13.199344 -0.46922,-4.162063 -0.885312,-6.896449 -1.37035,-9.602371 -0.210059,-1.171875 -0.604676,-3.130284 -0.982177,-3.695098 -0.18875,-0.282407 -0.422308,-0.904005 -0.720703,-0.888687 -0.298394,0.01532 -0.509603,0.255627 -0.705933,0.592896 -0.75423,1.295666 -1.34536,3.768721 -1.883666,6.728152 -0.538306,2.959431 -1.036337,6.523274 -1.446656,9.935183 -0.41032,3.411909 -0.796365,6.504839 -1.133058,9.111076 -0.168347,1.303123 -0.395285,2.594333 -0.554324,3.455693 -0.159038,0.86136 -0.280073,1.5287 -0.726726,2.05497 -0.446653,0.52627 -1.217493,-0.33812 -1.608365,-1.0414 -0.680747,-1.22485 -1.042321,-2.00154 -1.042321,-2.00154 0.773719,2.09357 1.476042,2.94031 1.746545,3.15972 0.206835,0.16777 0.468652,0.25827 0.728516,0.19727 0.259864,-0.061 0.473198,-0.26334 0.65039,-0.57032 0.200147,-0.34674 0.342042,-0.9534 0.503907,-1.83007 0.161865,-0.87667 0.325275,-2.00537 0.49414,-3.312505 0.337731,-2.614268 0.69948,-5.939275 1.109375,-9.347657 0.409896,-3.408382 0.86919,-6.899954 1.404297,-9.841797 0.535107,-2.941842 1.158103,-5.345886 1.837891,-6.513671 0.162174,-0.278595 0.29117,-0.347011 0.341797,-0.34961 0.05063,-0.0026 0.161483,0.04846 0.310546,0.271485 0.298128,0.446056 0.633546,1.429838 0.941407,2.748046 0.615722,2.636418 1.17424,6.638732 1.642578,10.792969 0.936676,8.308474 1.515625,17.23828 1.515625,17.23828 l 0.593096,-0.30651 c -0.10247,0.002 -0.06907,-6.620802 0.203779,-14.007972 0.136594,-3.698128 0.32771,-7.519438 0.589844,-10.658203 0.131066,-1.569382 0.280395,-2.968714 0.449218,-4.09375 0.168823,-1.125036 0.229236,-1.746158 0.351555,-2.008651 0.122319,-0.262492 0.231466,-0.180234 0.389892,0.191157 0.158426,0.37139 0.458793,1.269032 0.714598,2.648058 0.51161,2.758053 0.946752,6.806649 1.418088,10.991089 0.942247,8.365122 1.863488,17.180152 1.864143,17.188112 v 0.008 l 0.762844,-0.22126 c -4.44e-4,-0.27978 -0.817786,-7.112872 -0.427769,-14.437935 0.195274,-3.667502 0.622348,-7.10882 1.305179,-10.244615 0.682831,-3.135795 1.69589,-5.686494 3.039062,-6.681522 1.369514,-1.01455 3.896264,-1.424107 6.663574,-1.51965 0.36334,-0.01255 1.09816,0.04189 1.47365,0.04248 -0.79739,0.354033 -1.91868,0.880103 -2.64076,1.558356 -3.81675,3.585061 -5.577095,8.448316 -6.18164,13.197266 -0.604544,4.74895 -0.05734,9.388843 0.761719,12.576172 0.838527,3.263068 3.784701,5.364868 6.759761,6.265618 1.48753,0.45038 2.98744,0.60345 4.26172,0.44336 1.27428,-0.16007 2.34025,-0.63382 2.89844,-1.48632 0.17424,-0.26611 0.28803,-0.70347 0.42578,-1.36523 0.13775,-0.66177 0.27777,-1.53184 0.41992,-2.580085 0.28429,-2.096489 0.57571,-4.905727 0.85938,-8.160156 0.48101,-5.518596 0.82029,-12.308365 1.1809,-19.064691 0.47555,0.199237 0.73873,0.33445 1.19701,0.554443 0.69414,0.333209 1.37161,0.526309 2.00892,0.871212 -0.40559,4.948785 -0.6134,9.989791 -0.79504,15.037474 -0.68576,19.057413 -0.0371,36.683583 -0.0371,36.683583 0,0 0.27381,-1.07371 0.40076,-2.09209 1.20365,-6.15834 -0.39483,-24.646606 0.0371,-36.650388 0.43194,-12.003781 0.49144,-7.892378 0.88695,-12.767866 1.05141,0.578348 2.27245,1.173172 3.07362,1.590452 0.69518,0.362076 1.27373,0.627277 1.74609,0.722657 0.23619,0.04769 0.45338,0.05784 0.65039,-0.01758 0.19702,-0.07542 0.35086,-0.253585 0.41407,-0.46875 0.0696,-0.237103 0.006,-0.487726 -0.13282,-0.703125 -0.13928,-0.215399 -0.3511,-0.415059 -0.625,-0.613282 -0.54778,-0.396445 -1.22179,-1.006362 -2.21947,-1.391731 -0.66831,-0.258144 -1.8897,-0.740892 -2.81361,-0.868049 0.34436,-3.971774 0.72991,-7.467806 1.26758,-10.983261 0.40901,-2.674192 0.92858,-4.801906 1.47107,-7.047974 2.1488,0.915983 4.56633,1.484292 6.51318,1.539062 2.08419,0.05863 3.83373,-0.4163 4.60547,-1.652344 0.7323,-1.172866 1.3224,-3.111525 1.6543,-5.207031 0.3319,-2.095506 0.40025,-4.341291 0.0352,-6.115234 -0.18255,-0.886972 -0.47304,-1.658028 -0.91211,-2.234375 -0.43908,-0.576348 -1.04297,-0.952126 -1.78711,-1 z m 1.26416,1.204343 c 0.37665,0.494408 0.94749,1.268012 1.12098,2.110964 0.34697,1.685904 0.37599,3.779837 0.0506,5.833858 -0.32533,2.05402 -0.85747,4.076264 -1.52576,5.146611 -0.62884,1.007168 -2.23121,1.530392 -4.23571,1.474 -1.89696,-0.05337 -4.49575,-0.858576 -6.61952,-1.77479 1.10308,-4.427497 2.36624,-8.064756 4.04968,-9.867914 2.6456,-2.833759 4.30699,-3.630349 5.15598,-3.782438 0.84899,-0.15209 1.62707,0.365301 2.00373,0.859709 z m -17.62072,2.795427 c 0.17382,0.884051 0.0945,4.776804 0.0995,5.155032 -0.75126,-1.403454 -1.51582,-3.425911 -0.92821,-5.287613 0.0896,-0.283878 0.28795,-0.786216 0.37373,-0.876308 0.0858,-0.09009 0.41797,0.820633 0.45495,1.008889 z m 0.53039,6.488511 c 1.35885,1.666504 3.28147,3.050736 5.41211,4.021484 0.002,8.7e-4 0.004,0.0011 0.006,0.002 -0.54559,2.27303 -1.12986,4.422065 -1.54296,7.123046 -0.53596,3.504191 -1.08448,7.048437 -1.42835,10.998522 -1.03962,-0.163634 -2.0165,-0.291703 -3.25232,-0.542835 0.0544,-1.034283 0.0926,-1.870028 0.14209,-2.895994 0.34953,-7.248889 0.5047,-13.934999 0.49695,-18.859991 z m -3.95508,21.130859 c -1.03112,-0.14195 -1.86306,-0.204076 -2.89111,-0.280641 0.41355,-0.02381 0.74611,0.01498 1.16637,0.0486 0.88857,0.0537 1.09581,0.0896 1.72474,0.232045 z m -5.02026,-0.06262 c 2.27388,0.05287 6.32762,0.644645 6.55491,0.748907 0.22729,0.104263 0.96528,0.310404 1.23097,0.394904 -0.36146,6.795901 -0.66869,13.55362 -1.15222,19.101064 -0.28328,3.25004 -0.49796,6.13004 -0.78051,8.213626 -0.14127,1.041793 -0.24161,1.866633 -0.37561,2.510373 -0.134,0.64373 -0.33452,1.16275 -0.4126,1.28199 -0.45106,0.6889 -1.46365,0.95004 -2.65613,1.09984 -1.19249,0.14981 -2.50804,-0.0561 -3.94018,-0.48987 -2.86429,-0.86721 -6.05778,-3.34461 -6.663216,-5.770865 -0.782448,-3.135622 -1.460649,-8.110647 -0.865361,-12.78688 0.595287,-4.676232 2.323317,-9.158602 6.039067,-12.648793 0.87022,-0.817402 2.05134,-1.324065 3.02088,-1.654296 z m 10.68823,1.679813 c 0.28804,0.07556 0.45944,0.116813 0.73425,0.195067 -0.007,0.07769 -0.006,0.132041 -0.0126,0.209838 -0.29771,-0.159972 -0.8114,-0.392088 -0.8114,-0.392088 -0.005,-0.0151 0.0897,-0.01282 0.0897,-0.01282 z m 3.7832,0.984375 c 0.97608,0.377025 1.75211,0.762507 2.24219,1.117187 0.24504,0.177341 0.53238,0.399152 0.62317,0.539553 0.0908,0.1404 0.18078,0.20704 0.15501,0.294677 -0.0322,0.109574 0.0382,0.03562 -0.13476,0.24097 -0.17297,0.205352 -0.50708,-0.09445 -0.73671,-0.142997 -0.217,-0.04587 -1.08387,-0.529496 -1.766,-0.884773 -0.82535,-0.429874 -1.86859,-1.047927 -2.99022,-1.66162 0.01,-0.11891 0.059,0.04463 0.0219,-0.185808 0.62944,0.102825 1.9533,0.438652 2.58541,0.682811 z"
       id="path160"
       sodipodi:nodetypes="csccccssscscscscsssscszcssscssssssssszscssssssssssssccssszzsscccsssscssssssssscscsccccsssccsscscsssssccsscsscszsccscccccsccsccccccszssscscssscsscsscsssszsccccs" />
  </g>
</svg>
